<?xml version="1.0" encoding="utf-8"?>
<!DOCTYPE svg PUBLIC "-//W3C//DTD SVG 20010904//EN" "http://www.w3.org/TR/2001/REC-SVG-20010904/DTD/svg10.dtd">
<svg version="1.0" xmlns="http://www.w3.org/2000/svg" viewBox="0 0 545 563" preserveAspectRatio="xMidYMid meet">
 <g fill="#3e5b70">
  <path d="M168 444.5 c0 -5.1 -0.3 -6.5 -1.5 -6.5 -0.8 0 -1.5 -0.9 -1.5 -2 0 -2 0.7 -2 28 -2 l28 0 0 8.5 0 8.5 -26.5 0 -26.5 0 0 -6.5z"/>
  <path d="M222 442.5 l0 -8.5 42.5 0 42.5 0 0 8.5 0 8.5 -42.5 0 -42.5 0 0 -8.5z"/>
  <path d="M308 442 c0 -6.9 0.3 -9 1.3 -9 2.8 0 9.9 -6.2 11.8 -10.3 1.8 -4.1 1.9 -8.5 1.9 -126.9 l0 -122.8 8.5 0 8.5 0 0 133.8 c0 125.3 -0.1 133.9 -1.8 137.2 -2.7 5.5 -6.8 7 -19.4 7 l-10.8 0 0 -9z"/>
 </g>
 <g fill="#5d5c61">
  <path d="M438 245.9 l0 -54.1 -4.5 -6.4 c-3.1 -4.3 -4.5 -7.3 -4.5 -9.5 0 -3 0.1 -3.1 1.8 -1.6 1.7 1.5 6.6 1.7 50.3 1.7 45 0 48.7 0.2 52.4 1.9 4.7 2.2 8.9 6.4 10.4 10.4 0.7 1.9 1.1 21.2 1.1 57.3 l0 54.4 -53.5 0 -53.5 0 0 -54.1z"/>
  <path d="M270.5 44.8 c5.2 -7.3 14.3 -20.2 20.2 -28.6 7.3 -10.3 11.5 -15.5 13.1 -15.9 4.7 -1.2 3.1 -3.1 37.1 45 l9 12.7 -44.4 0 -44.5 0 9.5 -13.2z"/>
 </g>
 <g fill="#42627a">
  <path d="M168 453 l0 -5 25 0 25 0 0 -5.4 0 -5.4 -102.8 0.2 -102.9 0.1 -4.1 -2.9 c-2.4 -1.6 -5 -4.6 -6.2 -7 -2 -4.3 -2 -5 -1.8 -143.3 l0.3 -138.9 2.4 -3.6 c1.3 -1.9 4 -4.6 5.9 -5.9 l3.6 -2.4 98.2 -0.3 c85.4 -0.2 98.3 -0.4 99.4 -1.7 1.1 -1.3 8.4 -1.5 52.7 -1.5 56.5 0 55.5 -0.1 62 6.2 4.7 4.6 5.5 8.1 5.1 22.6 l-0.3 12.7 7.8 0.6 c4.3 0.4 8.1 1 8.5 1.4 1.2 1.2 1.4 262.4 0.1 268.4 -0.9 4.2 -2 6.3 -5.4 9.6 -5 5.1 -10 6.4 -23.7 6.4 -8.7 0 -8.7 0 -9.1 -2.7 l-0.4 -2.7 -0.2 2.8 -0.1 2.7 -42.4 0 -42.5 0 -0.4 -2.7 -0.4 -2.8 -0.2 2.8 -0.1 2.7 -26.5 0 -26.5 0 0 -5z m136 -10.5 l0 -5.5 -39.5 0 -39.5 0 0 5.5 0 5.5 39.5 0 39.5 0 0 -5.5z m26 3.7 c2 -1 4.2 -3.2 5.2 -5.2 1.7 -3.3 1.8 -11.8 1.8 -134.2 l0 -130.8 -5.5 0 -5.5 0 0 122.8 c0 118.4 -0.1 122.8 -1.9 126.9 -1.9 4.1 -9 10.3 -11.8 10.3 -0.9 0 -1.3 1.6 -1.3 6 l0 6 7.8 0 c5.3 0 8.8 -0.5 11.2 -1.8z m-203.2 -80.8 l2.2 -1.5 0 -39 0 -38.9 3.3 0.1 c3 0 4.2 1.3 20.7 24.1 9.6 13.2 18.1 24.7 18.8 25.6 4.6 6.1 9.9 13.3 11.2 15.2 3.7 5.5 10.3 13.5 12.1 14.8 2 1.4 12.1 1.3 13.5 -0.1 0.4 -0.3 -12.2 -17.8 -28 -38.9 -25.8 -34.6 -28.6 -38.7 -28.6 -42.2 0 -4.2 1.9 -6.8 36.4 -48.1 9.7 -11.5 17.6 -21.3 17.6 -21.6 0 -1 -4 -1.9 -8.4 -1.9 -4 0 -7.5 2.8 -13.3 10.5 -1.2 1.7 -12.6 16.1 -25.4 32 -21.4 26.8 -23.4 29 -26.5 29.3 l-3.4 0.3 0 -34.5 0 -34.5 -2.2 -1.5 c-2.5 -1.8 -7.4 -2.1 -11.2 -0.6 l-2.6 1 0 75 0 75.1 2.3 0.9 c3.5 1.4 9.1 1.1 11.5 -0.6z"/>
 </g>
 <g fill="#517086">
  <path d="M168 459.6 l0 -4.6 24.9 0 25 0 0.5 -5.2 c0.3 -2.9 0.7 -6.9 0.9 -8.8 0.1 -2.8 0.6 -3.5 2.2 -3.5 1.6 0 2.1 0.7 2.2 3.5 0.2 1.9 0.6 5.9 0.9 8.8 l0.5 5.2 39.4 0 39.4 0 0.5 -5.2 c0.3 -2.9 0.7 -6.9 0.9 -8.8 0.1 -2.8 0.6 -3.5 2.2 -3.5 1.6 0 2.1 0.7 2.2 3.5 0.2 1.9 0.5 5.8 0.8 8.5 l0.6 5.1 7.7 -0.3 c4.2 -0.1 8.6 -0.4 9.7 -0.7 1.1 -0.2 2.6 -0.5 3.3 -0.5 0.7 -0.1 3.2 -2.1 5.6 -4.5 3.3 -3.3 4.6 -5.5 5.4 -9.3 1.3 -5.7 1.2 -261.6 0 -262.8 -0.4 -0.4 -4.2 -1 -8.5 -1.4 l-7.8 -0.6 -0.7 -9 c-0.5 -5.8 -0.4 -9.1 0.2 -9.3 0.6 -0.2 1 -1 1 -1.8 0 -0.8 0.7 -1.4 1.5 -1.4 0.8 0 1.5 0.7 1.5 1.5 0 0.8 0.7 1.5 1.5 1.5 2.9 0 8.6 6.2 9.8 10.7 1 3.9 1.5 4.4 4.8 4.9 2 0.3 4.2 1 5 1.5 1.2 0.7 1.4 19.8 1.7 121.1 0.1 66.2 -0.1 127.5 -0.6 136.3 -1 17.7 -1.7 19.9 -7.9 26 -7.1 6.9 -4.6 6.7 -95 7.3 l-81.3 0.4 0 -4.6z"/>
 </g>
 <g fill="#527690">
  <path d="M179.5 561.6 c-1.6 -0.7 -4.3 -2.5 -5.8 -4 -5.7 -5.3 -5.7 -5.7 -5.7 -53.1 l0 -43.5 26.3 -0.1 c14.4 0 25.6 -0.3 25 -0.6 -1.5 -0.6 -1.7 -3.3 -0.3 -3.3 0.5 0 0.9 -0.8 0.8 -1.7 -0.3 -3.6 0.2 -5.3 1.6 -5.3 0.9 0 1.9 2 2.7 5.5 l1.2 5.5 40.6 -0.1 c22.3 0 40 -0.3 39.4 -0.6 -1.5 -0.6 -1.7 -3.3 -0.3 -3.3 0.5 0 0.9 -0.8 0.8 -1.7 -0.6 -7.1 2.5 -7.2 4.2 -0.3 l1.2 5 8.2 0 c10.6 0 17.3 -2 21.9 -6.5 6.2 -6.1 6.9 -8.3 7.9 -26 0.5 -8.8 0.7 -68.8 0.6 -133.3 -0.3 -98.7 -0.5 -117.4 -1.7 -118.1 -0.8 -0.5 -3 -1.2 -5 -1.5 -3.3 -0.5 -3.8 -1 -4.8 -4.9 -1.2 -4.5 -6.9 -10.7 -9.8 -10.7 -1.1 0 -1.5 -1.1 -1.5 -3.6 0 -3.6 0 -3.7 3.5 -3.1 7.7 1.3 14.5 8.8 14.5 15.9 0 1.8 0.7 2.8 2.3 3.3 1.2 0.4 20.3 1 42.5 1.2 l40.2 0.5 5.5 7.8 5.5 7.8 0 54.1 c0 47.4 0.2 54.1 1.5 54.1 1.3 0 1.5 7.5 1.5 61.5 0 53.6 -0.2 61.5 -1.5 61.5 -1.3 0 -1.5 8.5 -1.7 65.3 l-0.3 65.3 -2.4 3.5 c-1.3 1.9 -4 4.6 -6 6 l-3.6 2.4 -123 0.2 c-100.9 0.2 -123.5 0 -126 -1.1z"/>
  <path d="M191.8 368.6 c-2.6 -2 -2.2 -2.6 1.7 -2.6 2.8 0 3.5 0.4 3.5 2 0 2.3 -2.6 2.6 -5.2 0.6z"/>
  <path d="M183.3 358.5 c-1 -1.4 -2.6 -3.5 -3.5 -4.7 -2.4 -2.9 -2.3 -3.8 0.7 -3.8 1.8 0 2.5 0.5 2.5 2 0 1.1 0.7 2 1.5 2 1 0 1.5 1.1 1.5 3.5 0 4.2 -0.3 4.3 -2.7 1z"/>
  <path d="M172.1 343.3 c-1.2 -1.6 -2.4 -3.2 -2.9 -3.8 -0.4 -0.5 -7.7 -10.4 -16.1 -22 -8.5 -11.5 -16.5 -22.5 -17.9 -24.2 l-2.4 -3.3 3.1 0 c2.4 0 3.1 0.4 3.1 2 0 1.1 0.7 2 1.5 2 0.8 0 1.5 0.9 1.5 2 0 1.1 0.7 2 1.5 2 1 0 1.5 1.1 1.5 3.5 0 3.1 0.3 3.5 2.5 3.5 1.8 0 2.5 0.5 2.5 2 0 1.1 0.7 2 1.5 2 0.8 0 1.5 0.9 1.5 2 0 1.1 0.7 2 1.5 2 1 0 1.5 1.1 1.5 3.5 0 3.1 0.3 3.5 2.5 3.5 1.8 0 2.5 0.5 2.5 2 0 1.1 0.7 2 1.5 2 0.8 0 1.5 0.9 1.5 2 0 1.1 0.7 2 1.5 2 1 0 1.5 1.1 1.5 3.5 0 3.1 0.3 3.5 2.5 3.5 1.8 0 2.5 0.5 2.5 2 0 1.1 0.7 2 1.5 2 1 0 1.5 1.1 1.5 3.5 0 1.9 -0.2 3.5 -0.4 3.5 -0.3 0 -1.4 -1.2 -2.5 -2.7z"/>
  <path d="M131.1 279.3 l0.2 -3.8 0.6 3.3 0.6 3.2 8 -10.1 c4.3 -5.5 8.3 -10.3 8.7 -10.5 0.4 -0.3 0.8 1.1 0.8 3 0 2.9 -0.4 3.6 -2 3.6 -1.5 0 -2 0.7 -2 2.5 0 1.8 -0.5 2.5 -2 2.5 -1.5 0 -2 0.7 -2 2.5 0 1.8 -0.5 2.5 -2 2.5 -1.5 0 -2 0.7 -2 2.5 0 2.2 -0.4 2.5 -3.5 2.5 -3.4 0 -3.5 -0.1 -3.4 -3.7z"/>
  <path d="M151.7 257.8 c6.1 -7.9 20.6 -25.8 20.9 -25.8 0.2 0 0.4 1.6 0.4 3.5 0 2.8 -0.4 3.5 -2 3.5 -1.5 0 -2 0.7 -2 2.5 0 1.8 -0.5 2.5 -2 2.5 -1.5 0 -2 0.7 -2 2.5 0 1.8 -0.5 2.5 -2 2.5 -1.5 0 -2 0.7 -2 2.5 0 1.8 -0.5 2.5 -2 2.5 -1.5 0 -2 0.7 -2 2.5 0 2.1 -0.5 2.5 -3.1 2.5 -2.4 0 -2.9 -0.3 -2.2 -1.2z"/>
  <path d="M179.1 223.3 c0.8 -1 2.1 -2.6 2.9 -3.7 6.7 -8.6 13 -12.3 13 -7.6 0 1.6 -0.7 2 -3.5 2 -3.2 0 -3.5 0.2 -3.5 3 0 2.3 -0.4 3 -2 3 -1.5 0 -2 0.7 -2 2.5 0 2.1 -0.5 2.5 -3.1 2.5 -2.8 0 -3 -0.2 -1.8 -1.7z"/>
 </g>
 <g fill="#68879e">
  <path d="M220 475.6 c0 -0.8 -0.6 -1.7 -1.2 -2 -1 -0.5 -1 -0.7 0 -1.2 0.6 -0.3 1.2 -1.2 1.2 -1.9 0 -0.7 -0.6 -1.6 -1.2 -1.8 -1 -0.4 -1 -0.6 0 -0.6 0.8 -0.1 1.2 -2.2 1.2 -7.1 0 -5.2 0.3 -7 1.3 -7 2 0 3.3 5.4 3.6 14.8 l0.2 8.2 -2.5 0 c-1.6 0 -2.6 -0.6 -2.6 -1.4z"/>
  <path d="M306 475.6 c0 -0.8 -0.6 -1.7 -1.2 -2 -1 -0.5 -1 -0.7 0 -1.2 0.6 -0.3 1.2 -1.2 1.2 -1.9 0 -0.7 -0.6 -1.6 -1.2 -1.8 -1 -0.4 -1 -0.6 0 -0.6 0.8 -0.1 1.2 -2.2 1.2 -7.1 0 -5.3 0.3 -7 1.4 -7 2.5 0 4.6 12.7 2.3 14.2 -0.9 0.6 -0.9 0.8 0.1 0.8 0.7 0 1.2 1.5 1.2 4 0 3.6 -0.2 4 -2.5 4 -1.5 0 -2.5 -0.6 -2.5 -1.4z"/>
  <path d="M344.8 174.6 c-2 -0.7 -2.7 -1.7 -3.1 -4.7 -0.8 -6 -4.2 -10.6 -9.8 -13.1 -4.3 -2 -4.9 -2.7 -4.9 -5.3 0 -1.6 -0.3 -4 -0.6 -5.2 -0.6 -2.1 -0.3 -2.3 3.5 -2.3 11.5 0 21.6 9.7 23.6 22.7 l0.7 4.2 5.6 0.3 c5.1 0.3 5.7 0.6 6 2.6 0.3 2.2 0.2 2.3 -9 2 -5.2 -0.2 -10.5 -0.7 -12 -1.2z"/>
 </g>
 <g fill="#7395ae">
  <path d="M220 512.5 l0 -50.5 2.5 0 c2.6 0 3.4 1.5 1.3 2.3 -1 0.4 -1 0.6 0 0.6 1.6 0.1 1.6 2.8 0 3.4 -1 0.4 -1 0.6 0 0.6 0.6 0.1 1.2 0.7 1.2 1.5 0 0.8 -0.6 1.7 -1.2 2 -1 0.5 -1 0.7 0 1.2 0.9 0.4 1.2 10.4 1.2 45 l0 44.4 -2.5 0 -2.5 0 0 -50.5z"/>
  <path d="M306 512.5 l0 -50.5 2.5 0 c2.6 0 3.4 1.5 1.3 2.3 -1 0.4 -1 0.6 0 0.6 0.7 0.1 1.2 1.5 1.2 3.5 0 1.9 -0.6 3.7 -1.2 4 -1 0.5 -1 0.7 0 1.2 0.9 0.4 1.2 10.4 1.2 45 l0 44.4 -2.5 0 -2.5 0 0 -50.5z"/>
  <path d="M384 369.5 l0 -193.5 -10.3 0 c-6.9 0 -10.7 -0.4 -11.6 -1.2 -1.1 -1 -1.4 -1 -1.8 0 -0.6 1.4 -3.9 1.6 -4.8 0.2 -0.3 -0.5 -1.5 -1 -2.5 -1 -1.4 0 -2 -1 -2.5 -4.2 -1 -6.4 -5.1 -14.3 -9 -17.3 -4.3 -3.2 -9.6 -5.5 -13 -5.5 -1.5 0 -2.5 -0.6 -2.5 -1.5 0 -2 -5.7 -8.3 -9.4 -10.3 -2.8 -1.5 -8.7 -1.8 -55.2 -2.2 l-52.1 -0.5 26.9 -38.7 27 -38.8 42.3 0 42.3 0 42 60.3 41.9 60.2 -21.3 0.3 -21.4 0.2 0 193.5 0 193.5 -2.5 0 -2.5 0 0 -193.5z"/>
  <path d="M441 358.5 l0 -61.5 52 0 52 0 -0.2 55.3 -0.3 55.3 -2.4 3.5 c-1.3 1.9 -4 4.6 -6 6 l-3.6 2.4 -45.7 0.3 -45.8 0.3 0 -61.6z"/>
 </g>
 <g fill="#ffffff">
  <path d="M112.3 369 l-2.3 -0.9 0 -78.1 0 -78 2.6 -1 c4.4 -1.7 14.9 -1.2 17.3 0.8 2.1 1.7 2.1 2.4 2.4 36 l0.2 34.3 28 -35.2 c15.5 -19.5 29 -35.5 30.3 -36 3.1 -1.2 13.4 -1.1 16.6 0.1 3.3 1.2 3.4 4.7 0.4 8.6 -1.2 1.6 -9.9 12.1 -19.3 23.4 -28.4 34.1 -33.7 40.9 -33.2 42.2 0.3 0.7 13.3 18.5 29.1 39.6 19.3 25.9 28.6 39.1 28.6 40.8 0 1.7 -0.8 2.7 -2.6 3.4 -3.6 1.4 -15.5 1.2 -18.2 -0.3 -1.2 -0.7 -7 -7.9 -13 -15.9 -5.9 -8 -18.8 -25.6 -28.7 -39.1 l-18 -24.5 -0.2 38.6 c-0.3 45.2 0.5 42.2 -11.2 42.1 -3.6 0 -7.6 -0.4 -8.8 -0.9z"/>
 </g>
</svg>